<svg width="88" height="88" viewBox="0 0 88 88" fill="none" xmlns="http://www.w3.org/2000/svg"><path d="M82.5 28.875H33A4.125 4.125 0 0 0 28.875 33v49.5A4.125 4.125 0 0 0 33 86.625h49.5a4.125 4.125 0 0 0 4.125-4.125V33a4.125 4.125 0 0 0-4.125-4.125zm-2.75 38.5H77V79.75a1.375 1.375 0 0 1-1.375 1.375h-5.5a1.375 1.375 0 0 1-1.375-1.375V67.375H66a1.375 1.375 0 0 1-1.166-2.104l6.875-11a1.429 1.429 0 0 1 2.337 0l6.875 11a1.376 1.376 0 0 1-1.171 2.104z" fill="url(#a)"/><path d="M68.523 50.895l-31.81 5.3a10.974 10.974 0 0 0-12.218-7.932L13.714 2.437a1.375 1.375 0 0 0-1.535-1.046L2.554 2.766a1.375 1.375 0 1 0 .39 2.72l8.38-1.196 10.519 44.703a11 11 0 1 0 15.282 10.132c0-.07-.01-.137-.011-.207l31.862-5.31a1.375 1.375 0 0 0-.453-2.713zm-42.398 16.48a8.25 8.25 0 1 1 8.25-8.25 8.258 8.258 0 0 1-8.25 8.25z" fill="#0074D4"/><path d="M33.274 26.1L53.9 21.973a1.375 1.375 0 0 0 1.073-1.624L52.222 6.6a1.375 1.375 0 0 0-1.623-1.072L29.974 9.653a1.375 1.375 0 0 0-1.072 1.622l2.75 13.75a1.376 1.376 0 0 0 1.622 1.074zM49.8 8.5l2.212 11.053-17.933 3.58-2.211-11.053L49.8 8.5zM67.352 24.497a1.375 1.375 0 0 0-1.587-1.1l-31.625 5.5a1.376 1.376 0 0 0-1.115 1.609l4.125 22a1.375 1.375 0 0 0 1.586 1.1l31.625-5.5a1.374 1.374 0 0 0 1.117-1.609l-4.126-22zM39.6 50.663l-3.618-19.296L64.9 26.338l3.619 19.297-28.92 5.029z" fill="#0074D4"/><defs><linearGradient id="a" x1="57.75" y1="28.875" x2="57.75" y2="86.625" gradientUnits="userSpaceOnUse"><stop stop-color="#EEF2F5"/><stop offset="1" stop-color="#FAFBFC"/></linearGradient></defs></svg>